<?xml version="1.0" ?><svg height="512px" version="1.1" viewBox="0 0 512 512" width="512px" xmlns="http://www.w3.org/2000/svg" xmlns:xlink="http://www.w3.org/1999/xlink"><title/><desc/><defs/><g fill="none" fill-rule="evenodd" id="SVG" stroke="none" stroke-width="1"><g id="Swimtrunks"><g id="SwimTrunks" transform="translate(0.000000, 70.000000)"><path d="M449.257556,39.7780061 C449.257556,55.9396616 362.722542,69.0372635 255.981063,69.0372635 C149.239584,69.0372635 62.7045699,55.9396616 62.7045699,39.7780061 C62.7045699,23.6163506 149.239584,10.5187486 255.981063,10.5187486 C362.722542,10.5187486 449.257556,23.6163506 449.257556,39.7780061" fill="#173F53" id="Fill-1"/><path d="M77.1345534,39.7787072 C96.0995945,48.3047693 161.937184,58.5206184 255.983868,58.5206184 C350.030553,58.5206184 415.861129,48.3047693 434.82617,39.7787072 C415.861129,31.2526452 350.030553,21.0367961 255.983868,21.0367961 C161.93017,21.0367961 96.0995945,31.2526452 77.1345534,39.7787072 M255.983868,79.555311 C203.844033,79.555311 154.748142,76.4702228 117.736855,70.867983 C71.1729096,63.8213609 52.1798137,54.8115009 52.1798137,39.7787072 C52.1798137,24.7459136 71.1729096,15.7360536 117.736855,8.68943153 C154.748142,3.08719172 203.844033,0.00210346926 255.983868,0.00210346926 C308.123704,0.00210346926 357.219595,3.08719172 394.223868,8.68943153 C440.787814,15.7360536 459.78091,24.7459136 459.78091,39.7787072 C459.78091,54.8115009 440.787814,63.8213609 394.223868,70.867983 C357.212581,76.4702228 308.123704,79.555311 255.983868,79.555311" fill="#2E2E30" id="Fill-3"/><path d="M449.257556,35.1104078 C448.584241,35.8746683 447.791693,36.5828363 447.041227,37.312039 C448.500077,38.7564212 449.257556,40.2428728 449.257556,41.7503591 C449.257556,57.9120146 362.722542,71.0096166 255.981063,71.0096166 C149.239584,71.0096166 62.7045699,57.9120146 62.7045699,41.7503591 C62.7045699,40.2428728 63.4620493,38.7564212 64.9208986,37.312039 C64.1704329,36.5828363 63.3778849,35.8746683 62.7045699,35.1104078 C62.7045699,35.1104078 22.6212822,121.836446 10.5156384,297.798661 C10.5156384,297.798661 57.0795836,357.558223 230.879036,357.558223 L240.845501,254.635472 L255.981063,257.958953 L271.116625,254.635472 L281.08309,357.558223 C454.882542,357.558223 501.446488,297.798661 501.446488,297.798661 C489.340844,121.836446 449.257556,35.1104078 449.257556,35.1104078" fill="#5DB8E8" id="Fill-5"/><path d="M255.981063,156.862013 C340.236625,156.862013 413.536789,145.075574 475.432679,118.901405 C462.092625,62.907053 449.257556,35.1132124 449.257556,35.1132124 C448.584241,35.8774729 447.791693,36.5786293 447.041227,37.307832 C448.500077,38.7592258 449.257556,40.2386659 449.257556,41.7531637 C449.257556,57.9078077 362.722542,71.0124212 255.981063,71.0124212 C149.239584,71.0124212 62.7045699,57.9078077 62.7045699,41.7531637 C62.7045699,40.2386659 63.4620493,38.7592258 64.9208986,37.307832 C64.1704329,36.5786293 63.3778849,35.8774729 62.7045699,35.1132124 C62.7045699,35.1132124 49.8695014,62.907053 36.5294466,118.901405 C91.397611,141.759104 171.725501,156.862013 255.981063,156.862013" fill="#04679E" id="Fill-10"/><path d="M48.9156384,112.527192 C104.274762,133.779243 180.808241,146.343966 255.981063,146.343966 C337.844953,146.343966 405.709501,135.300752 463.060515,112.597307 C457.154981,89.0104054 451.473885,71.0958588 447.195529,58.9027486 C436.815255,64.5680925 419.617666,68.9994011 394.221063,72.8417383 C357.209775,78.4439781 308.120899,81.5290663 255.981063,81.5290663 C203.848241,81.5290663 154.752351,78.4439781 117.741063,72.8417383 C92.3444603,68.9994011 75.1468712,64.5680925 64.7665973,58.9027486 C60.4882411,71.0818357 54.8141589,88.9823591 48.9156384,112.527192 M255.981063,167.378659 C174.32057,167.378659 90.7663781,152.885755 32.4825425,128.61172 C27.7272548,126.627447 25.0971178,121.480959 26.2964603,116.467691 C39.7206795,60.0947145 52.6048438,31.8731686 53.1519123,30.7022374 C54.6388164,27.4769178 57.6547068,25.2262057 61.1615562,24.70735 C64.6894466,24.1744711 68.217337,25.4716105 70.5739397,28.1219817 C70.8825425,28.47256 71.2402411,28.7950919 71.5768986,29.1246354 L72.2502137,29.7696993 C74.2701589,31.7329373 75.4133918,34.4183664 75.4344329,37.2370152 C75.4414466,38.4009349 75.2590904,39.5438198 74.8943781,40.6306123 C90.3245151,49.3529982 157.775255,60.4943737 255.981063,60.4943737 C354.642762,60.4943737 422.247803,49.2548363 437.271145,40.5114157 C436.14194,36.774252 436.864351,32.5322556 439.711912,29.7696993 L440.399255,29.1036007 C440.728899,28.7950919 441.065556,28.4935946 441.353118,28.1640511 C443.702707,25.4926452 447.223584,24.1744711 450.772515,24.7003384 C454.293392,25.2121826 457.316296,27.4699063 458.810214,30.7022374 C459.357282,31.8731686 472.234433,60.0947145 485.665666,116.467691 C486.850981,121.459925 484.255912,126.585378 479.528679,128.590685 C417.815145,154.694739 344.690323,167.378659 255.981063,167.378659" fill="#2E2E30" id="Fill-12"/><path d="M449.257556,35.1097066 C448.584241,35.8739671 447.791693,36.5821351 447.041227,37.3113378 C448.500077,38.75572 449.257556,40.2421716 449.257556,41.7496579 C449.257556,49.6797371 428.384789,56.8736019 394.536679,62.1392867 C406.277611,104.026371 427.213501,194.819116 436.752132,335.464083 C485.314981,318.440005 501.446488,297.79796 501.446488,297.79796 C489.340844,121.835744 449.257556,35.1097066 449.257556,35.1097066" fill="#010201" fill-opacity="0.3" id="Fill-18"/><path d="M271.113819,244.12093 C273.316121,244.12093 275.490367,244.815075 277.306915,246.133249 C279.733655,247.907175 281.29771,250.627662 281.585271,253.6216 L290.625929,346.980577 C428.795792,345.19964 479.469764,304.862111 490.628559,294.001198 C481.777271,171.340893 459.03886,92.8744784 447.171682,58.9104614 C436.777381,64.5758052 419.593819,69.0001023 394.225271,72.8424394 C357.20697,78.4446792 308.118093,81.5297675 255.985271,81.5297675 C203.845436,81.5297675 154.749545,78.4446792 117.738258,72.8424394 C92.3697096,69.0001023 75.1791342,64.5758052 64.7918466,58.9104614 C52.9246685,92.8674668 30.1932712,171.312847 21.3419836,293.924071 C32.6620932,304.665787 84.3811068,345.171593 221.330586,346.980577 L230.371244,253.6216 C230.658805,250.634673 232.22286,247.907175 234.656614,246.133249 C237.090367,244.366335 240.162367,243.728282 243.101107,244.366335 L255.985271,247.191995 L268.862422,244.366335 C269.605874,244.205069 270.363353,244.12093 271.113819,244.12093 M281.080285,368.078374 C275.658696,368.078374 271.127847,363.962586 270.608833,358.570693 L261.7856,267.455416 L258.236668,268.233699 C256.756778,268.556231 255.206751,268.556231 253.72686,268.233699 L250.177929,267.455416 L241.354696,358.570693 C240.835682,363.962586 236.297819,368.078374 230.883244,368.078374 C53.9697096,368.078374 4.2496,306.867418 2.2156274,304.259116 C0.630531507,302.218751 -0.15500274,299.65953 0.0273534247,297.072263 C12.1189699,121.208209 51.4868603,34.3138941 53.1561205,30.7029385 C54.6430247,27.477619 57.6519014,25.2198953 61.1657644,24.7080511 C64.6866411,24.1751722 68.2145315,25.4723116 70.5711342,28.1226829 C70.879737,28.4732611 71.2374356,28.7957931 71.5811068,29.1253366 L72.2474082,29.7704005 C74.2743671,31.7266269 75.4176,34.4190676 75.4386411,37.2377164 C75.4456548,38.401636 75.2562849,39.544521 74.8915726,40.6313135 C90.3287233,49.3536993 157.772449,60.4950749 255.985271,60.4950749 C354.639956,60.4950749 422.244997,49.2555374 437.26834,40.5051053 C436.139134,36.7749531 436.868559,32.5329568 439.709107,29.7704005 L440.403463,29.1043019 C440.733107,28.7957931 441.062751,28.4942958 441.350312,28.1647523 C443.699901,25.4933463 447.220778,24.1751722 450.76971,24.7010396 C454.290586,25.2128837 457.31349,27.4706074 458.807408,30.7029385 C460.476668,34.3138941 499.837545,121.208209 511.936175,297.072263 C512.111518,299.65953 511.332997,302.218751 509.740888,304.259116 C507.706915,306.867418 457.993819,368.078374 281.080285,368.078374" fill="#2E2E30" id="Fill-7"/><path d="M173.791737,210.963243 C168.454312,210.963243 163.881381,206.91757 163.341326,201.49062 C157.576066,143.89062 188.548559,103.742403 189.867134,102.059628 C193.458148,97.4950992 200.079079,96.7027925 204.637984,100.285702 C209.203901,103.868611 210.003463,110.466493 206.426477,115.031021 C206.159956,115.3816 179.381655,150.488502 184.270203,199.401173 C184.85234,205.178702 180.637107,210.332202 174.850805,210.914162 C174.500121,210.94922 174.142422,210.963243 173.791737,210.963243" fill="#2E2E30" id="Fill-14"/><path d="M324.319737,210.963243 C323.969052,210.963243 323.611353,210.94922 323.260668,210.914162 C317.474367,210.332202 313.259134,205.178702 313.841271,199.401173 C318.729819,150.488502 291.958532,115.3816 291.692011,115.031021 C288.129052,110.45247 288.942641,103.847576 293.508559,100.27869 C298.074477,96.709804 304.66034,97.4950992 308.251353,102.059628 C309.569929,103.742403 340.542422,143.89062 334.770148,201.49062 C334.230093,206.91757 329.657162,210.963243 324.319737,210.963243" fill="#2E2E30" id="Fill-16"/></g></g></g></svg>