<?xml version="1.0" ?><svg height="512px" version="1.1" viewBox="0 0 512 512" width="512px" xmlns="http://www.w3.org/2000/svg" xmlns:xlink="http://www.w3.org/1999/xlink"><title/><desc/><defs><polygon id="path-1" points="510.022137 359.934777 510.022137 5.56440621 255.011419 5.56440621 0.000701369863 5.56440621 0.000701369863 359.934777"/><polygon id="path-3" points="4.70478904 295.455197 297.007693 295.455197 297.007693 2.28063274 4.70478904 2.28063274"/><polygon id="path-5" points="0 374.306562 510.022137 374.306562 510.022137 7.03464755 0 7.03464755"/></defs><g fill="none" fill-rule="evenodd" id="SVG" stroke="none" stroke-width="1"><g id="Camera"><g transform="translate(0.000000, 68.000000)"><path d="M370.474082,350.854454 L483.64011,350.854454 C492.400219,350.854454 499.498082,343.73539 499.498082,334.949115 L499.498082,230.055486 L499.498082,54.9209004 L499.498082,33.4933639 C499.498082,24.7070891 492.400219,17.5880258 483.64011,17.5880258 L239.563397,17.5880258 L239.563397,54.9209004 L26.3820274,54.9209004 C17.6219178,54.9209004 10.5240548,62.0399637 10.5240548,70.8262385 L10.5240548,334.949115 C10.5240548,343.73539 17.6219178,350.854454 26.3820274,350.854454 L247.49589,350.854454 L370.474082,350.854454 L370.474082,350.854454 Z" fill="#FEFEFE" id="Fill-1"/><g id="Group-5" transform="translate(0.000000, 1.470241)"><mask fill="white" id="mask-2"><use xlink:href="#path-1"/></mask><g id="Clip-4"/><path d="M483.637304,359.934777 L370.471277,359.934777 C364.663934,359.934777 359.950729,355.207493 359.950729,349.382805 C359.950729,343.558117 364.663934,338.830834 370.471277,338.830834 L483.637304,338.830834 C486.583058,338.830834 488.981742,336.424984 488.981742,333.470432 L488.981742,32.0287503 C488.981742,29.0741983 486.583058,26.6683489 483.637304,26.6683489 L250.08114,26.6683489 L250.08114,53.4492521 C250.08114,59.2739403 245.367934,64.0012234 239.560592,64.0012234 L26.3862356,64.0012234 C23.4404822,64.0012234 21.0417973,66.4000382 21.0417973,69.3545902 L21.0417973,333.470432 C21.0417973,336.424984 23.4404822,338.830834 26.3862356,338.830834 L247.500099,338.830834 C253.307441,338.830834 258.020647,343.558117 258.020647,349.382805 C258.020647,355.207493 253.307441,359.934777 247.500099,359.934777 L26.3862356,359.934777 C11.832811,359.934777 0.000701369863,348.067326 0.000701369863,333.470432 L0.000701369863,69.3545902 C0.000701369863,54.7647312 11.832811,42.8972808 26.3862356,42.8972808 L229.040044,42.8972808 L229.040044,16.1163775 C229.040044,10.2916894 233.753249,5.56440621 239.560592,5.56440621 L483.637304,5.56440621 C498.183715,5.56440621 510.022838,17.4318566 510.022838,32.0287503 L510.022838,333.470432 C510.022838,348.067326 498.183715,359.934777 483.637304,359.934777" fill="#2E2E30" id="Fill-3" mask="url(#mask-2)"/></g><path d="M95.3863014,54.91879 L38.6945753,54.91879 L38.6945753,38.0426705 C38.6945753,24.0859297 49.9796164,19.8018294 63.8947945,19.8018294 L70.1860822,19.8018294 C84.1012603,19.8018294 95.3863014,24.0859297 95.3863014,38.0426705 L95.3863014,54.91879 Z" fill="#323232" id="Fill-6"/><path d="M49.2193315,44.3654117 L84.8629479,44.3654117 L84.8629479,38.0482982 C84.8629479,35.1640927 84.8629479,30.3594284 70.1832767,30.3594284 L63.8990027,30.3594284 C49.2193315,30.3594284 49.2193315,35.1640927 49.2193315,38.0482982 L49.2193315,44.3654117 Z M95.3834959,65.4693544 L38.6987836,65.4693544 C32.8914411,65.4693544 28.1782356,60.7420712 28.1782356,54.917383 L28.1782356,38.0482982 C28.1782356,29.3886471 31.6570301,9.25548578 63.8990027,9.25548578 L70.1832767,9.25548578 C102.425249,9.25548578 105.904044,29.3886471 105.904044,38.0482982 L105.904044,54.917383 C105.904044,60.7420712 101.190838,65.4693544 95.3834959,65.4693544 L95.3834959,65.4693544 Z" fill="#2E2E30" id="Fill-8"/><path d="M203.00309,54.91879 L129.492515,54.91879 L129.492515,38.0426705 C129.492515,24.0859297 140.777556,19.8018294 154.692734,19.8018294 L177.802871,19.8018294 C191.718049,19.8018294 203.00309,24.0859297 203.00309,38.0426705 L203.00309,54.91879 Z" fill="#323232" id="Fill-10"/><path d="M140.013764,44.3654117 L192.47623,44.3654117 L192.47623,38.0482982 C192.47623,35.1640927 192.47623,30.3594284 177.803573,30.3594284 L154.693436,30.3594284 C140.013764,30.3594284 140.013764,35.1640927 140.013764,38.0482982 L140.013764,44.3654117 Z M202.996778,65.4693544 L129.493216,65.4693544 C123.685874,65.4693544 118.972668,60.7420712 118.972668,54.917383 L118.972668,38.0482982 C118.972668,29.3886471 122.451463,9.25548578 154.693436,9.25548578 L177.803573,9.25548578 C210.038532,9.25548578 213.517326,29.3886471 213.517326,38.0482982 L213.517326,54.917383 C213.517326,60.7420712 208.811134,65.4693544 202.996778,65.4693544 L202.996778,65.4693544 Z" fill="#2E2E30" id="Fill-12"/><path d="M26.3834301,350.854454 L247.497293,350.854454 L370.475485,350.854454 L483.641512,350.854454 C492.394608,350.854454 499.499485,343.728356 499.499485,334.949115 L499.499485,230.055486 L499.499485,108.482707 L370.475485,108.482707 L305.15691,91.6839685 L10.5254575,91.6839685 L10.5254575,334.949115 C10.5254575,343.728356 17.6233205,350.854454 26.3834301,350.854454" fill="#4F4F4F" id="Fill-14"/><path d="M21.0410959,102.23594 L21.0410959,334.942081 C21.0410959,337.896633 23.4397808,340.302482 26.3855342,340.302482 L483.636603,340.302482 C486.582356,340.302482 488.981041,337.896633 488.981041,334.942081 L488.981041,119.034678 L370.477589,119.034678 C369.593863,119.034678 368.717151,118.922124 367.868493,118.70405 L303.826411,102.23594 L21.0410959,102.23594 Z M483.636603,361.406425 L26.3855342,361.406425 C11.8391233,361.406425 0,349.53194 0,334.942081 L0,91.6839685 C0,85.8592803 4.71320548,81.1319971 10.5205479,81.1319971 L305.159014,81.1319971 C306.04274,81.1319971 306.919452,81.2445515 307.76811,81.4626256 L371.810192,97.9307355 L499.501589,97.9307355 C505.308932,97.9307355 510.022137,102.658019 510.022137,108.482707 L510.022137,334.942081 C510.022137,349.53194 498.183014,361.406425 483.636603,361.406425 L483.636603,361.406425 Z" fill="#2E2E30" id="Fill-16"/><path d="M440.787814,227.716465 C440.787814,302.846501 380.063211,363.75248 305.15691,363.75248 C230.250608,363.75248 169.526005,302.846501 169.526005,227.716465 C169.526005,152.58643 230.250608,91.6804511 305.15691,91.6804511 C380.063211,91.6804511 440.787814,152.58643 440.787814,227.716465" fill="#D8D8D7" id="Fill-18"/><g id="Group-22" transform="translate(154.301370, 78.851364)"><mask fill="white" id="mask-4"><use xlink:href="#path-3"/></mask><g id="Clip-21"/><path d="M150.856241,23.3845754 C81.8695014,23.3845754 25.7458849,79.6758251 25.7458849,148.868618 C25.7458849,218.061412 81.8695014,274.352661 150.856241,274.352661 C219.842981,274.352661 275.966597,218.061412 275.966597,148.868618 C275.966597,79.6758251 219.842981,23.3845754 150.856241,23.3845754 M150.856241,295.456604 C70.2688438,295.456604 4.70478904,229.696719 4.70478904,148.868618 C4.70478904,68.040518 70.2688438,2.28063274 150.856241,2.28063274 C231.443638,2.28063274 297.007693,68.040518 297.007693,148.868618 C297.007693,229.696719 231.443638,295.456604 150.856241,295.456604" fill="#2E2E30" id="Fill-20" mask="url(#mask-4)"/></g><path d="M396.003945,227.716465 C396.003945,278.042334 355.331507,318.836255 305.155507,318.836255 C254.986521,318.836255 214.314082,278.042334 214.314082,227.716465 C214.314082,177.390597 254.986521,136.596676 305.155507,136.596676 C355.331507,136.596676 396.003945,177.390597 396.003945,227.716465" fill="#373737" id="Fill-23"/><path d="M305.157611,147.150757 C260.873118,147.150757 224.836734,183.294777 224.836734,227.718576 C224.836734,272.142375 260.873118,308.27936 305.157611,308.27936 C349.449118,308.27936 385.485501,272.142375 385.485501,227.718576 C385.485501,183.294777 349.449118,147.150757 305.157611,147.150757 M305.157611,329.383302 C249.265447,329.383302 203.795638,283.777682 203.795638,227.718576 C203.795638,171.652435 249.265447,126.046815 305.157611,126.046815 C361.056789,126.046815 406.526597,171.652435 406.526597,227.718576 C406.526597,283.777682 361.056789,329.383302 305.157611,329.383302" fill="#2E2E30" id="Fill-25"/><path d="M352.206904,227.716465 C352.206904,253.779835 331.144767,274.904881 305.159014,274.904881 C279.17326,274.904881 258.111123,253.779835 258.111123,227.716465 C258.111123,201.653096 279.17326,180.52805 305.159014,180.52805 C331.144767,180.52805 352.206904,201.653096 352.206904,227.716465" fill="#2F2F2F" id="Fill-27"/><path d="M305.157611,191.082835 C285.014268,191.082835 268.630268,207.515772 268.630268,227.719279 C268.630268,247.922787 285.014268,264.355724 305.157611,264.355724 C325.300953,264.355724 341.684953,247.922787 341.684953,227.719279 C341.684953,207.515772 325.300953,191.082835 305.157611,191.082835 M305.157611,285.459666 C273.413611,285.459666 247.589173,259.558094 247.589173,227.719279 C247.589173,195.880465 273.413611,169.978892 305.157611,169.978892 C336.901611,169.978892 362.726049,195.880465 362.726049,227.719279 C362.726049,259.558094 336.901611,285.459666 305.157611,285.459666" fill="#3F3F3F" id="Fill-29"/><mask fill="white" id="mask-6"><use xlink:href="#path-5"/></mask><g id="Clip-32"/><path d="M419.685699,69.8681195 L451.534904,69.8681195 L451.534904,60.6456965 L419.685699,60.6456965 L419.685699,69.8681195 Z M462.055452,90.9720621 L409.165151,90.9720621 C403.357808,90.9720621 398.644603,86.244779 398.644603,80.4200908 L398.644603,50.0937252 C398.644603,44.269037 403.357808,39.5417539 409.165151,39.5417539 L462.055452,39.5417539 C467.862795,39.5417539 472.576,44.269037 472.576,50.0937252 L472.576,80.4200908 C472.576,86.244779 467.862795,90.9720621 462.055452,90.9720621 L462.055452,90.9720621 Z" fill="#2E2E30" id="Fill-31" mask="url(#mask-6)"/><path d="M351.609337,75.8081759 L283.429173,75.8081759 C277.62183,75.8081759 272.908625,71.0808927 272.908625,65.2562045 L272.908625,50.0965391 C272.908625,44.2718509 277.62183,39.5445677 283.429173,39.5445677 L351.609337,39.5445677 C357.416679,39.5445677 362.129885,44.2718509 362.129885,50.0965391 L362.129885,65.2562045 C362.129885,71.0808927 357.416679,75.8081759 351.609337,75.8081759" fill="#2E2E30" id="Fill-33" mask="url(#mask-6)"/><polygon fill="#010201" fill-opacity="0.3" id="Fill-34" mask="url(#mask-6)" points="95.3863014 341.757247 121.351014 341.757247 121.351014 65.2533907 95.3863014 65.2533907"/><path d="M226.794959,220.432088 C226.794959,221.409904 226.907178,222.366616 226.942247,223.337397 C237.063014,228.571175 248.50937,231.582004 260.685151,231.582004 C301.413699,231.582004 334.427178,198.469918 334.427178,157.61972 C334.427178,156.641904 334.314959,155.685192 334.27989,154.714411 C324.159123,149.480633 312.705753,146.469804 300.536986,146.469804 C259.808438,146.469804 226.794959,179.58189 226.794959,220.432088" fill="#FEFEFE" fill-opacity="0.15" id="Fill-35" mask="url(#mask-6)"/><path d="M340.026915,250.831614 C340.026915,260.490185 332.220668,268.319748 322.59086,268.319748 C312.961052,268.319748 305.161819,260.490185 305.161819,250.831614 C305.161819,241.173043 312.961052,233.34348 322.59086,233.34348 C332.220668,233.34348 340.026915,241.173043 340.026915,250.831614" fill="#FEFEFE" fill-opacity="0.15" id="Fill-36" mask="url(#mask-6)"/></g></g></g></svg>